G04 EAGLE Gerber RS-274X export*
G75*
%MOMM*%
%FSLAX34Y34*%
%LPD*%
%INBottom Copper*%
%IPPOS*%
%AMOC8*
5,1,8,0,0,1.08239X$1,22.5*%
G01*
%ADD10R,1.100000X2.000000*%
%ADD11C,0.454000*%
%ADD12C,0.300000*%
%ADD13C,0.200000*%

G36*
X42064Y4510D02*
X42064Y4510D01*
X42128Y4509D01*
X42203Y4530D01*
X42279Y4541D01*
X42338Y4567D01*
X42400Y4584D01*
X42466Y4625D01*
X42536Y4657D01*
X42585Y4699D01*
X42640Y4732D01*
X42692Y4790D01*
X42750Y4840D01*
X42786Y4894D01*
X42829Y4942D01*
X42862Y5011D01*
X42905Y5076D01*
X42924Y5138D01*
X42952Y5195D01*
X42963Y5265D01*
X42987Y5346D01*
X42988Y5431D01*
X42999Y5500D01*
X42999Y150000D01*
X42990Y150064D01*
X42991Y150128D01*
X42970Y150203D01*
X42959Y150279D01*
X42933Y150338D01*
X42916Y150400D01*
X42875Y150466D01*
X42843Y150536D01*
X42801Y150585D01*
X42768Y150640D01*
X42710Y150692D01*
X42660Y150750D01*
X42606Y150786D01*
X42558Y150829D01*
X42489Y150862D01*
X42424Y150905D01*
X42362Y150924D01*
X42305Y150952D01*
X42235Y150963D01*
X42154Y150987D01*
X42069Y150988D01*
X42000Y150999D01*
X41657Y150999D01*
X41562Y150986D01*
X41466Y150981D01*
X41423Y150966D01*
X41378Y150959D01*
X41290Y150920D01*
X41199Y150888D01*
X41165Y150863D01*
X41121Y150843D01*
X41023Y150760D01*
X40950Y150707D01*
X38950Y148707D01*
X37459Y147215D01*
X37432Y147203D01*
X37370Y147186D01*
X37304Y147145D01*
X37234Y147113D01*
X37185Y147071D01*
X37130Y147038D01*
X37078Y146980D01*
X37020Y146930D01*
X36984Y146876D01*
X36941Y146828D01*
X36908Y146759D01*
X36865Y146694D01*
X36846Y146632D01*
X36818Y146575D01*
X36807Y146505D01*
X36783Y146424D01*
X36782Y146339D01*
X36771Y146270D01*
X36771Y143231D01*
X35793Y142254D01*
X35736Y142177D01*
X35671Y142105D01*
X35651Y142064D01*
X35624Y142028D01*
X35590Y141938D01*
X35548Y141852D01*
X35542Y141810D01*
X35525Y141764D01*
X35515Y141637D01*
X35501Y141547D01*
X35501Y104550D01*
X29043Y98092D01*
X28985Y98015D01*
X28921Y97944D01*
X28901Y97903D01*
X28874Y97867D01*
X28840Y97777D01*
X28798Y97690D01*
X28791Y97648D01*
X28774Y97603D01*
X28764Y97475D01*
X28750Y97385D01*
X28770Y37634D01*
X28771Y37630D01*
X28771Y35788D01*
X28771Y34320D01*
X27769Y33318D01*
X26431Y31979D01*
X26428Y31977D01*
X22041Y27590D01*
X21983Y27513D01*
X21919Y27442D01*
X21899Y27401D01*
X21872Y27365D01*
X21838Y27275D01*
X21796Y27188D01*
X21789Y27146D01*
X21772Y27101D01*
X21762Y26973D01*
X21748Y26884D01*
X21748Y23582D01*
X21762Y23487D01*
X21767Y23391D01*
X21782Y23348D01*
X21788Y23303D01*
X21828Y23215D01*
X21859Y23124D01*
X21884Y23090D01*
X21904Y23046D01*
X21987Y22949D01*
X22041Y22875D01*
X22518Y22398D01*
X22518Y18860D01*
X20017Y16358D01*
X16478Y16358D01*
X13977Y18860D01*
X13977Y22398D01*
X14454Y22875D01*
X14512Y22952D01*
X14576Y23024D01*
X14596Y23065D01*
X14623Y23101D01*
X14657Y23191D01*
X14699Y23277D01*
X14706Y23319D01*
X14723Y23365D01*
X14733Y23492D01*
X14747Y23582D01*
X14747Y30198D01*
X17573Y33023D01*
X17592Y33049D01*
X17617Y33070D01*
X17676Y33162D01*
X17742Y33249D01*
X17753Y33279D01*
X17771Y33306D01*
X17803Y33411D01*
X17841Y33513D01*
X17844Y33545D01*
X17853Y33576D01*
X17855Y33685D01*
X17863Y33794D01*
X17857Y33826D01*
X17857Y33858D01*
X17828Y33963D01*
X17806Y34070D01*
X17791Y34099D01*
X17782Y34130D01*
X17725Y34223D01*
X17673Y34319D01*
X17651Y34342D01*
X17634Y34370D01*
X17553Y34443D01*
X17476Y34521D01*
X17448Y34537D01*
X17424Y34559D01*
X17380Y34580D01*
X14729Y37231D01*
X14729Y38763D01*
X14718Y38843D01*
X14716Y38924D01*
X14698Y38982D01*
X14689Y39042D01*
X14656Y39116D01*
X14632Y39194D01*
X14600Y39240D01*
X14573Y39299D01*
X14504Y39380D01*
X14458Y39448D01*
X3728Y50849D01*
X3691Y50878D01*
X3660Y50914D01*
X3581Y50966D01*
X3507Y51025D01*
X3464Y51043D01*
X3424Y51069D01*
X3334Y51096D01*
X3247Y51132D01*
X3199Y51137D01*
X3154Y51151D01*
X3060Y51152D01*
X2966Y51162D01*
X2919Y51154D01*
X2872Y51155D01*
X2781Y51130D01*
X2688Y51113D01*
X2646Y51092D01*
X2600Y51080D01*
X2520Y51030D01*
X2436Y50988D01*
X2401Y50956D01*
X2360Y50931D01*
X2297Y50862D01*
X2228Y50798D01*
X2203Y50757D01*
X2171Y50722D01*
X2130Y50637D01*
X2081Y50557D01*
X2069Y50511D01*
X2048Y50468D01*
X2036Y50387D01*
X2008Y50284D01*
X2009Y50219D01*
X2001Y50164D01*
X2001Y5500D01*
X2010Y5436D01*
X2009Y5372D01*
X2030Y5297D01*
X2041Y5221D01*
X2067Y5162D01*
X2084Y5100D01*
X2125Y5034D01*
X2157Y4964D01*
X2199Y4915D01*
X2232Y4860D01*
X2290Y4808D01*
X2340Y4750D01*
X2394Y4714D01*
X2442Y4671D01*
X2511Y4638D01*
X2576Y4595D01*
X2638Y4576D01*
X2695Y4548D01*
X2765Y4537D01*
X2846Y4513D01*
X2931Y4512D01*
X3000Y4501D01*
X42000Y4501D01*
X42064Y4510D01*
G37*
D10*
X8500Y163000D03*
X37500Y163000D03*
X23000Y163000D03*
D11*
X18248Y20629D03*
X32500Y145000D03*
D12*
X32000Y144500D01*
X32000Y106000D01*
X25249Y99249D01*
X25270Y35770D01*
X18248Y28748D02*
X18248Y20629D01*
X18248Y28748D02*
X25270Y35770D01*
D11*
X40000Y139000D03*
X36000Y79500D03*
X27000Y28500D03*
X26000Y21500D03*
X31500Y84500D03*
X40000Y145500D03*
X12398Y96851D03*
X21800Y112000D03*
D13*
X14985Y111938D02*
X11398Y108351D01*
X14985Y111938D02*
X21760Y111938D01*
X11398Y97851D02*
X12398Y96851D01*
X21760Y111938D02*
X21800Y112000D01*
X11398Y108351D02*
X11398Y97851D01*
D11*
X19000Y49000D03*
X11500Y90000D03*
D13*
X8500Y87000D01*
X23000Y150500D02*
X23000Y163000D01*
X7000Y134500D02*
X7000Y92000D01*
X9000Y90000D02*
X11500Y90000D01*
X9000Y90000D02*
X7000Y92000D01*
X7000Y134500D02*
X23000Y150500D01*
X8500Y59500D02*
X19000Y49000D01*
X8500Y59500D02*
X8500Y87000D01*
D11*
X19000Y58000D03*
D13*
X38000Y162500D02*
X37500Y163000D01*
X38000Y162500D02*
X38000Y152000D01*
X17668Y59332D02*
X19000Y58000D01*
X17668Y105168D02*
X16668Y106168D01*
X17668Y105168D02*
X17668Y59332D01*
D11*
X16668Y106168D03*
D13*
X24668Y106168D01*
X27230Y108730D01*
X27230Y147683D02*
X29817Y150270D01*
X27230Y147683D02*
X27230Y108730D01*
X29817Y150270D02*
X36270Y150270D01*
X38000Y152000D01*
X5000Y53875D02*
X19000Y39000D01*
D11*
X19000Y39000D03*
D13*
X8500Y147687D02*
X8500Y163000D01*
X8500Y147687D02*
X3000Y142187D01*
X3000Y55875D02*
X5000Y53875D01*
X3000Y55875D02*
X3000Y142187D01*
M02*
