G04 EAGLE Gerber RS-274X export*
G75*
%MOMM*%
%FSLAX34Y34*%
%LPD*%
%INSilkscreen Top*%
%IPPOS*%
%AMOC8*
5,1,8,0,0,1.08239X$1,22.5*%
G01*
%ADD10C,0.300000*%
%ADD11C,0.050800*%
%ADD12C,0.500000*%
%ADD13C,0.120000*%


D10*
X25382Y7500D02*
X25384Y7566D01*
X25390Y7632D01*
X25400Y7698D01*
X25413Y7763D01*
X25431Y7827D01*
X25452Y7889D01*
X25477Y7951D01*
X25505Y8011D01*
X25537Y8069D01*
X25573Y8125D01*
X25611Y8178D01*
X25653Y8230D01*
X25698Y8279D01*
X25745Y8325D01*
X25796Y8368D01*
X25848Y8408D01*
X25903Y8445D01*
X25960Y8479D01*
X26019Y8509D01*
X26080Y8536D01*
X26142Y8559D01*
X26205Y8578D01*
X26270Y8594D01*
X26335Y8606D01*
X26401Y8614D01*
X26467Y8618D01*
X26533Y8618D01*
X26599Y8614D01*
X26665Y8606D01*
X26730Y8594D01*
X26795Y8578D01*
X26858Y8559D01*
X26920Y8536D01*
X26981Y8509D01*
X27040Y8479D01*
X27097Y8445D01*
X27152Y8408D01*
X27204Y8368D01*
X27255Y8325D01*
X27302Y8279D01*
X27347Y8230D01*
X27389Y8178D01*
X27427Y8125D01*
X27463Y8069D01*
X27495Y8011D01*
X27523Y7951D01*
X27548Y7889D01*
X27569Y7827D01*
X27587Y7763D01*
X27600Y7698D01*
X27610Y7632D01*
X27616Y7566D01*
X27618Y7500D01*
X27616Y7434D01*
X27610Y7368D01*
X27600Y7302D01*
X27587Y7237D01*
X27569Y7173D01*
X27548Y7111D01*
X27523Y7049D01*
X27495Y6989D01*
X27463Y6931D01*
X27427Y6875D01*
X27389Y6822D01*
X27347Y6770D01*
X27302Y6721D01*
X27255Y6675D01*
X27204Y6632D01*
X27152Y6592D01*
X27097Y6555D01*
X27040Y6521D01*
X26981Y6491D01*
X26920Y6464D01*
X26858Y6441D01*
X26795Y6422D01*
X26730Y6406D01*
X26665Y6394D01*
X26599Y6386D01*
X26533Y6382D01*
X26467Y6382D01*
X26401Y6386D01*
X26335Y6394D01*
X26270Y6406D01*
X26205Y6422D01*
X26142Y6441D01*
X26080Y6464D01*
X26019Y6491D01*
X25960Y6521D01*
X25903Y6555D01*
X25848Y6592D01*
X25796Y6632D01*
X25745Y6675D01*
X25698Y6721D01*
X25653Y6770D01*
X25611Y6822D01*
X25573Y6875D01*
X25537Y6931D01*
X25505Y6989D01*
X25477Y7049D01*
X25452Y7111D01*
X25431Y7173D01*
X25413Y7237D01*
X25400Y7302D01*
X25390Y7368D01*
X25384Y7434D01*
X25382Y7500D01*
D11*
X34697Y110854D02*
X36139Y110854D01*
X34697Y110854D02*
X34621Y110856D01*
X34546Y110862D01*
X34471Y110872D01*
X34397Y110886D01*
X34324Y110903D01*
X34251Y110925D01*
X34180Y110950D01*
X34110Y110979D01*
X34042Y111011D01*
X33976Y111047D01*
X33911Y111087D01*
X33849Y111130D01*
X33789Y111176D01*
X33731Y111225D01*
X33677Y111277D01*
X33625Y111331D01*
X33576Y111389D01*
X33530Y111449D01*
X33487Y111511D01*
X33447Y111576D01*
X33411Y111642D01*
X33379Y111710D01*
X33350Y111780D01*
X33325Y111851D01*
X33303Y111924D01*
X33286Y111997D01*
X33272Y112071D01*
X33262Y112146D01*
X33256Y112221D01*
X33254Y112297D01*
X33254Y115903D01*
X33256Y115979D01*
X33262Y116054D01*
X33272Y116129D01*
X33286Y116203D01*
X33303Y116276D01*
X33325Y116349D01*
X33350Y116420D01*
X33379Y116490D01*
X33411Y116558D01*
X33447Y116624D01*
X33487Y116689D01*
X33530Y116751D01*
X33576Y116811D01*
X33625Y116869D01*
X33677Y116923D01*
X33731Y116975D01*
X33789Y117024D01*
X33849Y117070D01*
X33911Y117113D01*
X33975Y117153D01*
X34042Y117189D01*
X34110Y117221D01*
X34180Y117250D01*
X34251Y117275D01*
X34323Y117297D01*
X34397Y117314D01*
X34471Y117328D01*
X34546Y117338D01*
X34621Y117344D01*
X34697Y117346D01*
X36139Y117346D01*
X38521Y115903D02*
X40325Y117346D01*
X40325Y110854D01*
X42128Y110854D02*
X38521Y110854D01*
X21939Y138954D02*
X20497Y138954D01*
X20421Y138956D01*
X20346Y138962D01*
X20271Y138972D01*
X20197Y138986D01*
X20124Y139003D01*
X20051Y139025D01*
X19980Y139050D01*
X19910Y139079D01*
X19842Y139111D01*
X19776Y139147D01*
X19711Y139187D01*
X19649Y139230D01*
X19589Y139276D01*
X19531Y139325D01*
X19477Y139377D01*
X19425Y139431D01*
X19376Y139489D01*
X19330Y139549D01*
X19287Y139611D01*
X19247Y139676D01*
X19211Y139742D01*
X19179Y139810D01*
X19150Y139880D01*
X19125Y139951D01*
X19103Y140024D01*
X19086Y140097D01*
X19072Y140171D01*
X19062Y140246D01*
X19056Y140321D01*
X19054Y140397D01*
X19054Y144003D01*
X19056Y144079D01*
X19062Y144154D01*
X19072Y144229D01*
X19086Y144303D01*
X19103Y144376D01*
X19125Y144449D01*
X19150Y144520D01*
X19179Y144590D01*
X19211Y144658D01*
X19247Y144724D01*
X19287Y144789D01*
X19330Y144851D01*
X19376Y144911D01*
X19425Y144969D01*
X19477Y145023D01*
X19531Y145075D01*
X19589Y145124D01*
X19649Y145170D01*
X19711Y145213D01*
X19775Y145253D01*
X19842Y145289D01*
X19910Y145321D01*
X19980Y145350D01*
X20051Y145375D01*
X20123Y145397D01*
X20197Y145414D01*
X20271Y145428D01*
X20346Y145438D01*
X20421Y145444D01*
X20497Y145446D01*
X21939Y145446D01*
X26305Y145446D02*
X26385Y145444D01*
X26464Y145438D01*
X26543Y145428D01*
X26622Y145415D01*
X26699Y145397D01*
X26776Y145376D01*
X26852Y145351D01*
X26926Y145322D01*
X26999Y145290D01*
X27070Y145254D01*
X27139Y145215D01*
X27207Y145172D01*
X27272Y145127D01*
X27335Y145078D01*
X27395Y145026D01*
X27453Y144971D01*
X27508Y144913D01*
X27560Y144853D01*
X27609Y144790D01*
X27654Y144725D01*
X27697Y144657D01*
X27736Y144588D01*
X27772Y144517D01*
X27804Y144444D01*
X27833Y144370D01*
X27858Y144294D01*
X27879Y144217D01*
X27897Y144140D01*
X27910Y144061D01*
X27920Y143982D01*
X27926Y143903D01*
X27928Y143823D01*
X26305Y145446D02*
X26215Y145444D01*
X26124Y145438D01*
X26035Y145428D01*
X25945Y145415D01*
X25856Y145397D01*
X25769Y145376D01*
X25682Y145351D01*
X25596Y145322D01*
X25512Y145289D01*
X25429Y145253D01*
X25348Y145213D01*
X25268Y145170D01*
X25191Y145123D01*
X25115Y145073D01*
X25042Y145020D01*
X24972Y144964D01*
X24903Y144905D01*
X24838Y144842D01*
X24775Y144777D01*
X24715Y144710D01*
X24658Y144640D01*
X24604Y144567D01*
X24553Y144492D01*
X24506Y144415D01*
X24462Y144336D01*
X24422Y144255D01*
X24385Y144173D01*
X24351Y144089D01*
X24321Y144003D01*
X27387Y142561D02*
X27443Y142616D01*
X27496Y142674D01*
X27546Y142734D01*
X27594Y142796D01*
X27638Y142861D01*
X27680Y142927D01*
X27719Y142995D01*
X27755Y143065D01*
X27787Y143136D01*
X27816Y143209D01*
X27842Y143283D01*
X27865Y143358D01*
X27884Y143434D01*
X27900Y143511D01*
X27912Y143588D01*
X27921Y143666D01*
X27926Y143745D01*
X27928Y143823D01*
X27387Y142561D02*
X24321Y138954D01*
X27928Y138954D01*
X4639Y82254D02*
X3197Y82254D01*
X3121Y82256D01*
X3046Y82262D01*
X2971Y82272D01*
X2897Y82286D01*
X2824Y82303D01*
X2751Y82325D01*
X2680Y82350D01*
X2610Y82379D01*
X2542Y82411D01*
X2475Y82447D01*
X2411Y82487D01*
X2349Y82530D01*
X2289Y82576D01*
X2231Y82625D01*
X2177Y82677D01*
X2125Y82731D01*
X2076Y82789D01*
X2030Y82849D01*
X1987Y82911D01*
X1947Y82976D01*
X1911Y83042D01*
X1879Y83110D01*
X1850Y83180D01*
X1825Y83251D01*
X1803Y83324D01*
X1786Y83397D01*
X1772Y83471D01*
X1762Y83546D01*
X1756Y83621D01*
X1754Y83697D01*
X1754Y87303D01*
X1756Y87379D01*
X1762Y87454D01*
X1772Y87529D01*
X1786Y87603D01*
X1803Y87676D01*
X1825Y87749D01*
X1850Y87820D01*
X1879Y87890D01*
X1911Y87958D01*
X1947Y88024D01*
X1987Y88089D01*
X2030Y88151D01*
X2076Y88211D01*
X2125Y88269D01*
X2177Y88323D01*
X2231Y88375D01*
X2289Y88424D01*
X2349Y88470D01*
X2411Y88513D01*
X2475Y88553D01*
X2542Y88589D01*
X2610Y88621D01*
X2680Y88650D01*
X2751Y88675D01*
X2823Y88697D01*
X2897Y88714D01*
X2971Y88728D01*
X3046Y88738D01*
X3121Y88744D01*
X3197Y88746D01*
X4639Y88746D01*
X7021Y82254D02*
X8825Y82254D01*
X8908Y82256D01*
X8991Y82262D01*
X9074Y82271D01*
X9156Y82285D01*
X9238Y82302D01*
X9318Y82323D01*
X9398Y82347D01*
X9476Y82376D01*
X9553Y82408D01*
X9629Y82443D01*
X9702Y82482D01*
X9774Y82524D01*
X9844Y82570D01*
X9912Y82618D01*
X9977Y82670D01*
X10040Y82725D01*
X10100Y82782D01*
X10157Y82842D01*
X10212Y82905D01*
X10264Y82970D01*
X10312Y83038D01*
X10358Y83108D01*
X10400Y83180D01*
X10439Y83253D01*
X10474Y83329D01*
X10506Y83406D01*
X10535Y83484D01*
X10559Y83564D01*
X10580Y83644D01*
X10597Y83726D01*
X10611Y83808D01*
X10620Y83891D01*
X10626Y83974D01*
X10628Y84057D01*
X10626Y84140D01*
X10620Y84223D01*
X10611Y84306D01*
X10597Y84388D01*
X10580Y84470D01*
X10559Y84550D01*
X10535Y84630D01*
X10506Y84708D01*
X10474Y84785D01*
X10439Y84861D01*
X10400Y84934D01*
X10358Y85006D01*
X10312Y85076D01*
X10264Y85144D01*
X10212Y85209D01*
X10157Y85272D01*
X10100Y85332D01*
X10040Y85389D01*
X9977Y85444D01*
X9912Y85496D01*
X9844Y85544D01*
X9774Y85590D01*
X9702Y85632D01*
X9629Y85671D01*
X9553Y85706D01*
X9476Y85738D01*
X9398Y85767D01*
X9318Y85791D01*
X9238Y85812D01*
X9156Y85829D01*
X9074Y85843D01*
X8991Y85852D01*
X8908Y85858D01*
X8825Y85860D01*
X9185Y88746D02*
X7021Y88746D01*
X9185Y88746D02*
X9261Y88744D01*
X9336Y88738D01*
X9411Y88728D01*
X9485Y88714D01*
X9558Y88697D01*
X9631Y88675D01*
X9702Y88650D01*
X9772Y88621D01*
X9840Y88589D01*
X9906Y88553D01*
X9971Y88513D01*
X10033Y88470D01*
X10093Y88424D01*
X10151Y88375D01*
X10205Y88323D01*
X10257Y88269D01*
X10306Y88211D01*
X10352Y88151D01*
X10395Y88089D01*
X10435Y88025D01*
X10471Y87958D01*
X10503Y87890D01*
X10532Y87820D01*
X10557Y87749D01*
X10579Y87676D01*
X10596Y87603D01*
X10610Y87529D01*
X10620Y87454D01*
X10626Y87379D01*
X10628Y87303D01*
X10626Y87227D01*
X10620Y87152D01*
X10610Y87077D01*
X10596Y87003D01*
X10579Y86930D01*
X10557Y86857D01*
X10532Y86786D01*
X10503Y86716D01*
X10471Y86648D01*
X10435Y86582D01*
X10395Y86517D01*
X10352Y86455D01*
X10306Y86395D01*
X10257Y86337D01*
X10205Y86283D01*
X10151Y86231D01*
X10093Y86182D01*
X10033Y86136D01*
X9971Y86093D01*
X9907Y86053D01*
X9840Y86017D01*
X9772Y85985D01*
X9702Y85956D01*
X9631Y85931D01*
X9558Y85909D01*
X9485Y85892D01*
X9411Y85878D01*
X9336Y85868D01*
X9261Y85862D01*
X9185Y85860D01*
X9185Y85861D02*
X7743Y85861D01*
D12*
X36540Y114360D03*
D13*
X31500Y115360D02*
X31500Y115860D01*
X31500Y115360D02*
X10500Y115360D01*
X10500Y115860D01*
X31500Y137140D02*
X31500Y137640D01*
X10500Y137640D01*
X10500Y137140D01*
D11*
X1942Y114056D02*
X1942Y109367D01*
X1944Y109284D01*
X1950Y109201D01*
X1959Y109118D01*
X1973Y109036D01*
X1990Y108954D01*
X2011Y108874D01*
X2035Y108794D01*
X2064Y108716D01*
X2096Y108639D01*
X2131Y108563D01*
X2170Y108490D01*
X2212Y108418D01*
X2258Y108348D01*
X2306Y108280D01*
X2358Y108215D01*
X2413Y108152D01*
X2470Y108092D01*
X2530Y108035D01*
X2593Y107980D01*
X2658Y107928D01*
X2726Y107880D01*
X2796Y107834D01*
X2868Y107792D01*
X2941Y107753D01*
X3017Y107718D01*
X3094Y107686D01*
X3172Y107657D01*
X3252Y107633D01*
X3332Y107612D01*
X3414Y107595D01*
X3496Y107581D01*
X3579Y107572D01*
X3662Y107566D01*
X3745Y107564D01*
X3828Y107566D01*
X3911Y107572D01*
X3994Y107581D01*
X4076Y107595D01*
X4158Y107612D01*
X4238Y107633D01*
X4318Y107657D01*
X4396Y107686D01*
X4473Y107718D01*
X4549Y107753D01*
X4622Y107792D01*
X4694Y107834D01*
X4764Y107880D01*
X4832Y107928D01*
X4897Y107980D01*
X4960Y108035D01*
X5020Y108092D01*
X5077Y108152D01*
X5132Y108215D01*
X5184Y108280D01*
X5232Y108348D01*
X5278Y108418D01*
X5320Y108490D01*
X5359Y108563D01*
X5394Y108639D01*
X5426Y108716D01*
X5455Y108794D01*
X5479Y108874D01*
X5500Y108954D01*
X5517Y109036D01*
X5531Y109118D01*
X5540Y109201D01*
X5546Y109284D01*
X5548Y109367D01*
X5548Y114056D01*
X8452Y107564D02*
X10255Y107564D01*
X10338Y107566D01*
X10421Y107572D01*
X10504Y107581D01*
X10586Y107595D01*
X10668Y107612D01*
X10748Y107633D01*
X10828Y107657D01*
X10906Y107686D01*
X10983Y107718D01*
X11059Y107753D01*
X11132Y107792D01*
X11204Y107834D01*
X11274Y107880D01*
X11342Y107928D01*
X11407Y107980D01*
X11470Y108035D01*
X11530Y108092D01*
X11587Y108152D01*
X11642Y108215D01*
X11694Y108280D01*
X11742Y108348D01*
X11788Y108418D01*
X11830Y108490D01*
X11869Y108563D01*
X11904Y108639D01*
X11936Y108716D01*
X11965Y108794D01*
X11989Y108874D01*
X12010Y108954D01*
X12027Y109036D01*
X12041Y109118D01*
X12050Y109201D01*
X12056Y109284D01*
X12058Y109367D01*
X12056Y109450D01*
X12050Y109533D01*
X12041Y109616D01*
X12027Y109698D01*
X12010Y109780D01*
X11989Y109860D01*
X11965Y109940D01*
X11936Y110018D01*
X11904Y110095D01*
X11869Y110171D01*
X11830Y110244D01*
X11788Y110316D01*
X11742Y110386D01*
X11694Y110454D01*
X11642Y110519D01*
X11587Y110582D01*
X11530Y110642D01*
X11470Y110699D01*
X11407Y110754D01*
X11342Y110806D01*
X11274Y110854D01*
X11204Y110900D01*
X11132Y110942D01*
X11059Y110981D01*
X10983Y111016D01*
X10906Y111048D01*
X10828Y111077D01*
X10748Y111101D01*
X10668Y111122D01*
X10586Y111139D01*
X10504Y111153D01*
X10421Y111162D01*
X10338Y111168D01*
X10255Y111170D01*
X10616Y114056D02*
X8452Y114056D01*
X10616Y114056D02*
X10692Y114054D01*
X10767Y114048D01*
X10842Y114038D01*
X10916Y114024D01*
X10989Y114007D01*
X11062Y113985D01*
X11133Y113960D01*
X11203Y113931D01*
X11271Y113899D01*
X11337Y113863D01*
X11402Y113823D01*
X11464Y113780D01*
X11524Y113734D01*
X11582Y113685D01*
X11636Y113633D01*
X11688Y113579D01*
X11737Y113521D01*
X11783Y113461D01*
X11826Y113399D01*
X11866Y113335D01*
X11902Y113268D01*
X11934Y113200D01*
X11963Y113130D01*
X11988Y113059D01*
X12010Y112986D01*
X12027Y112913D01*
X12041Y112839D01*
X12051Y112764D01*
X12057Y112689D01*
X12059Y112613D01*
X12057Y112537D01*
X12051Y112462D01*
X12041Y112387D01*
X12027Y112313D01*
X12010Y112240D01*
X11988Y112167D01*
X11963Y112096D01*
X11934Y112026D01*
X11902Y111958D01*
X11866Y111892D01*
X11826Y111827D01*
X11783Y111765D01*
X11737Y111705D01*
X11688Y111647D01*
X11636Y111593D01*
X11582Y111541D01*
X11524Y111492D01*
X11464Y111446D01*
X11402Y111403D01*
X11338Y111363D01*
X11271Y111327D01*
X11203Y111295D01*
X11133Y111266D01*
X11062Y111241D01*
X10989Y111219D01*
X10916Y111202D01*
X10842Y111188D01*
X10767Y111178D01*
X10692Y111172D01*
X10616Y111170D01*
X10616Y111171D02*
X9173Y111171D01*
D13*
X4496Y4648D02*
X4496Y2870D01*
X40500Y31500D02*
X40500Y34500D01*
X40500Y61500D02*
X40500Y64500D01*
X4500Y64500D02*
X4500Y61500D01*
X4500Y54500D02*
X4500Y51500D01*
X4500Y44500D02*
X4500Y41500D01*
X4500Y34500D02*
X4500Y31500D01*
X4500Y24500D02*
X4500Y21500D01*
X4500Y14500D02*
X4500Y11500D01*
X40500Y51500D02*
X40500Y54500D01*
X40500Y44500D02*
X40500Y41500D01*
X40500Y24500D02*
X40500Y21500D01*
X40500Y14500D02*
X40500Y11500D01*
X40500Y2500D02*
X4500Y2500D01*
X40500Y2500D02*
X40500Y4500D01*
X40500Y71500D02*
X40500Y73500D01*
X4500Y73500D01*
X4500Y71500D01*
D12*
X46930Y-540D03*
D11*
X22120Y76917D02*
X22120Y81606D01*
X22120Y76917D02*
X22122Y76834D01*
X22128Y76751D01*
X22137Y76668D01*
X22151Y76586D01*
X22168Y76504D01*
X22189Y76424D01*
X22213Y76344D01*
X22242Y76266D01*
X22274Y76189D01*
X22309Y76113D01*
X22348Y76040D01*
X22390Y75968D01*
X22436Y75898D01*
X22484Y75830D01*
X22536Y75765D01*
X22591Y75702D01*
X22648Y75642D01*
X22708Y75585D01*
X22771Y75530D01*
X22836Y75478D01*
X22904Y75430D01*
X22974Y75384D01*
X23046Y75342D01*
X23119Y75303D01*
X23195Y75268D01*
X23272Y75236D01*
X23350Y75207D01*
X23430Y75183D01*
X23510Y75162D01*
X23592Y75145D01*
X23674Y75131D01*
X23757Y75122D01*
X23840Y75116D01*
X23923Y75114D01*
X24006Y75116D01*
X24089Y75122D01*
X24172Y75131D01*
X24254Y75145D01*
X24336Y75162D01*
X24416Y75183D01*
X24496Y75207D01*
X24574Y75236D01*
X24651Y75268D01*
X24727Y75303D01*
X24800Y75342D01*
X24872Y75384D01*
X24942Y75430D01*
X25010Y75478D01*
X25075Y75530D01*
X25138Y75585D01*
X25198Y75642D01*
X25255Y75702D01*
X25310Y75765D01*
X25362Y75830D01*
X25410Y75898D01*
X25456Y75968D01*
X25498Y76040D01*
X25537Y76113D01*
X25572Y76189D01*
X25604Y76266D01*
X25633Y76344D01*
X25657Y76424D01*
X25678Y76504D01*
X25695Y76586D01*
X25709Y76668D01*
X25718Y76751D01*
X25724Y76834D01*
X25726Y76917D01*
X25727Y76917D02*
X25727Y81606D01*
X28630Y80163D02*
X30433Y81606D01*
X30433Y75114D01*
X28630Y75114D02*
X32237Y75114D01*
D13*
X19500Y88000D02*
X19500Y109000D01*
X40500Y109000D01*
X40500Y88000D01*
X19500Y88000D01*
D12*
X16000Y111640D03*
D11*
X7443Y92629D02*
X2754Y92629D01*
X7443Y92630D02*
X7526Y92632D01*
X7609Y92638D01*
X7692Y92647D01*
X7774Y92661D01*
X7856Y92678D01*
X7936Y92699D01*
X8016Y92723D01*
X8094Y92752D01*
X8171Y92784D01*
X8247Y92819D01*
X8320Y92858D01*
X8392Y92900D01*
X8462Y92946D01*
X8530Y92994D01*
X8595Y93046D01*
X8658Y93101D01*
X8718Y93158D01*
X8775Y93218D01*
X8830Y93281D01*
X8882Y93346D01*
X8930Y93414D01*
X8976Y93484D01*
X9018Y93556D01*
X9057Y93629D01*
X9092Y93705D01*
X9124Y93782D01*
X9153Y93860D01*
X9177Y93940D01*
X9198Y94020D01*
X9215Y94102D01*
X9229Y94184D01*
X9238Y94267D01*
X9244Y94350D01*
X9246Y94433D01*
X9244Y94516D01*
X9238Y94599D01*
X9229Y94682D01*
X9215Y94764D01*
X9198Y94846D01*
X9177Y94926D01*
X9153Y95006D01*
X9124Y95084D01*
X9092Y95161D01*
X9057Y95237D01*
X9018Y95310D01*
X8976Y95382D01*
X8930Y95452D01*
X8882Y95520D01*
X8830Y95585D01*
X8775Y95648D01*
X8718Y95708D01*
X8658Y95765D01*
X8595Y95820D01*
X8530Y95872D01*
X8462Y95920D01*
X8392Y95966D01*
X8320Y96008D01*
X8247Y96047D01*
X8171Y96082D01*
X8094Y96114D01*
X8016Y96143D01*
X7936Y96167D01*
X7856Y96188D01*
X7774Y96205D01*
X7692Y96219D01*
X7609Y96228D01*
X7526Y96234D01*
X7443Y96236D01*
X2754Y96236D01*
X2754Y101123D02*
X2756Y101203D01*
X2762Y101282D01*
X2772Y101361D01*
X2785Y101440D01*
X2803Y101517D01*
X2824Y101594D01*
X2849Y101670D01*
X2878Y101744D01*
X2910Y101817D01*
X2946Y101888D01*
X2985Y101957D01*
X3028Y102025D01*
X3073Y102090D01*
X3122Y102153D01*
X3174Y102213D01*
X3229Y102271D01*
X3287Y102326D01*
X3347Y102378D01*
X3410Y102427D01*
X3475Y102472D01*
X3543Y102515D01*
X3612Y102554D01*
X3683Y102590D01*
X3756Y102622D01*
X3830Y102651D01*
X3906Y102676D01*
X3983Y102697D01*
X4060Y102715D01*
X4139Y102728D01*
X4218Y102738D01*
X4297Y102744D01*
X4377Y102746D01*
X2754Y101123D02*
X2756Y101033D01*
X2762Y100942D01*
X2772Y100853D01*
X2785Y100763D01*
X2803Y100674D01*
X2824Y100587D01*
X2849Y100500D01*
X2878Y100414D01*
X2911Y100330D01*
X2947Y100247D01*
X2987Y100166D01*
X3030Y100086D01*
X3077Y100009D01*
X3127Y99933D01*
X3180Y99860D01*
X3236Y99790D01*
X3295Y99721D01*
X3358Y99656D01*
X3423Y99593D01*
X3490Y99533D01*
X3560Y99476D01*
X3633Y99422D01*
X3708Y99371D01*
X3785Y99324D01*
X3864Y99280D01*
X3945Y99240D01*
X4027Y99203D01*
X4111Y99169D01*
X4197Y99139D01*
X5639Y102205D02*
X5584Y102261D01*
X5526Y102314D01*
X5466Y102364D01*
X5404Y102412D01*
X5339Y102456D01*
X5273Y102498D01*
X5205Y102537D01*
X5135Y102573D01*
X5064Y102605D01*
X4991Y102634D01*
X4917Y102660D01*
X4842Y102683D01*
X4766Y102702D01*
X4689Y102718D01*
X4612Y102730D01*
X4534Y102739D01*
X4455Y102744D01*
X4377Y102746D01*
X5639Y102205D02*
X9246Y99139D01*
X9246Y102746D01*
M02*
