G04 EAGLE Gerber RS-274X export*
G75*
%MOMM*%
%FSLAX34Y34*%
%LPD*%
%INTop Copper*%
%IPPOS*%
%AMOC8*
5,1,8,0,0,1.08239X$1,22.5*%
G01*
%ADD10R,0.600000X0.900000*%
%ADD11R,0.600000X0.500000*%
%ADD12R,1.600000X2.000000*%
%ADD13R,1.000000X0.400000*%
%ADD14R,0.250000X0.275000*%
%ADD15R,0.275000X0.250000*%
%ADD16C,0.200000*%
%ADD17C,0.454000*%

G36*
X27837Y43767D02*
X27837Y43767D01*
X27869Y43765D01*
X27976Y43787D01*
X28084Y43803D01*
X28114Y43816D01*
X28146Y43823D01*
X28242Y43874D01*
X28341Y43919D01*
X28366Y43940D01*
X28394Y43955D01*
X28473Y44031D01*
X28556Y44102D01*
X28573Y44129D01*
X28596Y44152D01*
X28650Y44247D01*
X28710Y44338D01*
X28720Y44369D01*
X28735Y44397D01*
X28761Y44503D01*
X28792Y44608D01*
X28793Y44640D01*
X28800Y44672D01*
X28795Y44781D01*
X28796Y44890D01*
X28788Y44921D01*
X28786Y44953D01*
X28750Y45056D01*
X28749Y45059D01*
X28749Y48769D01*
X31251Y51271D01*
X34789Y51271D01*
X35159Y50901D01*
X35210Y50863D01*
X35255Y50817D01*
X35322Y50778D01*
X35384Y50732D01*
X35444Y50709D01*
X35500Y50678D01*
X35576Y50660D01*
X35648Y50632D01*
X35712Y50627D01*
X35775Y50613D01*
X35852Y50617D01*
X35929Y50611D01*
X35992Y50624D01*
X36056Y50627D01*
X36129Y50652D01*
X36205Y50668D01*
X36262Y50698D01*
X36323Y50719D01*
X36379Y50761D01*
X36454Y50801D01*
X36515Y50860D01*
X36572Y50901D01*
X36991Y51320D01*
X37023Y51363D01*
X37062Y51400D01*
X37107Y51475D01*
X37160Y51546D01*
X37179Y51596D01*
X37206Y51642D01*
X37228Y51727D01*
X37259Y51810D01*
X37264Y51863D01*
X37277Y51915D01*
X37274Y52003D01*
X37281Y52091D01*
X37270Y52143D01*
X37269Y52197D01*
X37242Y52281D01*
X37224Y52367D01*
X37198Y52414D01*
X37182Y52465D01*
X37133Y52538D01*
X37091Y52616D01*
X37054Y52654D01*
X37024Y52699D01*
X36963Y52748D01*
X36894Y52818D01*
X36831Y52853D01*
X36784Y52892D01*
X36771Y52899D01*
X36399Y53271D01*
X36136Y53728D01*
X35999Y54237D01*
X35999Y55751D01*
X40750Y55751D01*
X40813Y55760D01*
X40878Y55759D01*
X40952Y55780D01*
X41029Y55791D01*
X41087Y55817D01*
X41149Y55834D01*
X41215Y55875D01*
X41286Y55907D01*
X41335Y55948D01*
X41389Y55982D01*
X41441Y56040D01*
X41500Y56090D01*
X41535Y56144D01*
X41578Y56192D01*
X41612Y56261D01*
X41655Y56326D01*
X41659Y56340D01*
X41716Y56375D01*
X41786Y56407D01*
X41835Y56449D01*
X41890Y56483D01*
X41942Y56540D01*
X42000Y56590D01*
X42036Y56644D01*
X42079Y56692D01*
X42112Y56761D01*
X42155Y56826D01*
X42174Y56888D01*
X42202Y56946D01*
X42213Y57015D01*
X42237Y57096D01*
X42238Y57181D01*
X42249Y57250D01*
X42249Y61501D01*
X43000Y61501D01*
X43064Y61510D01*
X43128Y61509D01*
X43203Y61530D01*
X43279Y61541D01*
X43338Y61567D01*
X43400Y61584D01*
X43466Y61625D01*
X43536Y61657D01*
X43585Y61699D01*
X43640Y61732D01*
X43692Y61790D01*
X43750Y61840D01*
X43786Y61894D01*
X43829Y61942D01*
X43862Y62011D01*
X43905Y62076D01*
X43924Y62138D01*
X43952Y62195D01*
X43963Y62265D01*
X43987Y62346D01*
X43988Y62431D01*
X43999Y62500D01*
X43999Y99000D01*
X43990Y99064D01*
X43991Y99128D01*
X43970Y99203D01*
X43959Y99279D01*
X43933Y99338D01*
X43916Y99400D01*
X43875Y99466D01*
X43843Y99536D01*
X43801Y99585D01*
X43768Y99640D01*
X43710Y99692D01*
X43660Y99750D01*
X43606Y99786D01*
X43558Y99829D01*
X43489Y99862D01*
X43424Y99905D01*
X43362Y99924D01*
X43305Y99952D01*
X43235Y99963D01*
X43154Y99987D01*
X43069Y99988D01*
X43000Y99999D01*
X36999Y99999D01*
X36999Y111000D01*
X36990Y111064D01*
X36991Y111128D01*
X36970Y111202D01*
X36959Y111279D01*
X36933Y111338D01*
X36916Y111400D01*
X36875Y111466D01*
X36843Y111536D01*
X36801Y111585D01*
X36768Y111640D01*
X36710Y111691D01*
X36660Y111750D01*
X36606Y111786D01*
X36558Y111829D01*
X36489Y111862D01*
X36424Y111905D01*
X36362Y111924D01*
X36305Y111952D01*
X36235Y111962D01*
X36154Y111987D01*
X36069Y111988D01*
X36000Y111999D01*
X34000Y111999D01*
X33936Y111990D01*
X33872Y111991D01*
X33797Y111970D01*
X33721Y111959D01*
X33662Y111933D01*
X33600Y111916D01*
X33534Y111875D01*
X33464Y111843D01*
X33415Y111801D01*
X33360Y111768D01*
X33308Y111710D01*
X33250Y111660D01*
X33214Y111606D01*
X33171Y111558D01*
X33138Y111489D01*
X33095Y111424D01*
X33076Y111362D01*
X33048Y111304D01*
X33038Y111235D01*
X33013Y111154D01*
X33012Y111069D01*
X33001Y111000D01*
X33001Y99999D01*
X26737Y99999D01*
X26228Y100136D01*
X25771Y100399D01*
X25378Y100792D01*
X25359Y100817D01*
X25314Y100890D01*
X25272Y100927D01*
X25238Y100972D01*
X25168Y101021D01*
X25105Y101079D01*
X25054Y101103D01*
X25008Y101136D01*
X24928Y101164D01*
X24851Y101202D01*
X24799Y101210D01*
X24742Y101230D01*
X24631Y101236D01*
X24546Y101249D01*
X21493Y101249D01*
X21398Y101236D01*
X21301Y101231D01*
X21258Y101216D01*
X21213Y101209D01*
X21126Y101170D01*
X21035Y101138D01*
X21001Y101113D01*
X20956Y101093D01*
X20859Y101010D01*
X20786Y100957D01*
X19829Y99999D01*
X9657Y99999D01*
X9562Y99986D01*
X9466Y99981D01*
X9423Y99966D01*
X9378Y99959D01*
X9290Y99920D01*
X9199Y99888D01*
X9165Y99863D01*
X9121Y99843D01*
X9023Y99760D01*
X8950Y99707D01*
X8043Y98800D01*
X7986Y98723D01*
X7921Y98651D01*
X7901Y98611D01*
X7874Y98574D01*
X7840Y98484D01*
X7798Y98398D01*
X7792Y98356D01*
X7775Y98310D01*
X7765Y98183D01*
X7751Y98093D01*
X7751Y93250D01*
X7760Y93187D01*
X7759Y93122D01*
X7780Y93048D01*
X7791Y92971D01*
X7817Y92913D01*
X7834Y92851D01*
X7875Y92785D01*
X7907Y92714D01*
X7948Y92665D01*
X7982Y92611D01*
X8040Y92559D01*
X8090Y92500D01*
X8144Y92465D01*
X8192Y92422D01*
X8261Y92388D01*
X8326Y92345D01*
X8340Y92341D01*
X8375Y92284D01*
X8407Y92214D01*
X8449Y92165D01*
X8483Y92110D01*
X8540Y92058D01*
X8590Y92000D01*
X8644Y91964D01*
X8692Y91921D01*
X8761Y91888D01*
X8826Y91845D01*
X8888Y91826D01*
X8946Y91798D01*
X9015Y91787D01*
X9096Y91763D01*
X9181Y91762D01*
X9250Y91751D01*
X14523Y91751D01*
X14618Y91764D01*
X14714Y91769D01*
X14757Y91784D01*
X14802Y91791D01*
X14890Y91830D01*
X14981Y91862D01*
X15015Y91887D01*
X15059Y91907D01*
X15157Y91990D01*
X15230Y92043D01*
X16550Y93363D01*
X17757Y94571D01*
X18547Y94571D01*
X18642Y94584D01*
X18738Y94589D01*
X18781Y94604D01*
X18826Y94611D01*
X18914Y94650D01*
X19005Y94682D01*
X19039Y94707D01*
X19083Y94727D01*
X19181Y94810D01*
X19254Y94863D01*
X20231Y95841D01*
X23769Y95841D01*
X26271Y93339D01*
X26271Y89801D01*
X25793Y89324D01*
X25736Y89247D01*
X25671Y89175D01*
X25651Y89134D01*
X25624Y89098D01*
X25590Y89008D01*
X25548Y88922D01*
X25542Y88880D01*
X25525Y88834D01*
X25515Y88707D01*
X25501Y88617D01*
X25501Y88475D01*
X25510Y88411D01*
X25509Y88347D01*
X25530Y88272D01*
X25541Y88196D01*
X25567Y88137D01*
X25584Y88075D01*
X25625Y88009D01*
X25657Y87939D01*
X25699Y87890D01*
X25732Y87835D01*
X25790Y87783D01*
X25840Y87725D01*
X25894Y87689D01*
X25942Y87646D01*
X26011Y87613D01*
X26076Y87570D01*
X26138Y87551D01*
X26195Y87523D01*
X26265Y87512D01*
X26346Y87488D01*
X26431Y87487D01*
X26500Y87476D01*
X26501Y87476D01*
X26501Y84100D01*
X26510Y84037D01*
X26509Y83972D01*
X26529Y83898D01*
X26540Y83821D01*
X26567Y83763D01*
X26584Y83701D01*
X26625Y83635D01*
X26657Y83564D01*
X26698Y83515D01*
X26732Y83461D01*
X26790Y83409D01*
X26840Y83350D01*
X26894Y83315D01*
X26941Y83272D01*
X27011Y83238D01*
X27076Y83195D01*
X27137Y83177D01*
X27195Y83149D01*
X27265Y83138D01*
X27346Y83113D01*
X27430Y83112D01*
X27500Y83101D01*
X27564Y83110D01*
X27628Y83109D01*
X27703Y83130D01*
X27779Y83141D01*
X27838Y83167D01*
X27900Y83184D01*
X27966Y83225D01*
X28036Y83257D01*
X28085Y83299D01*
X28140Y83333D01*
X28192Y83390D01*
X28251Y83441D01*
X28286Y83494D01*
X28329Y83542D01*
X28363Y83612D01*
X28405Y83676D01*
X28424Y83738D01*
X28452Y83796D01*
X28463Y83865D01*
X28487Y83946D01*
X28489Y84031D01*
X28499Y84100D01*
X28499Y87476D01*
X29013Y87476D01*
X29551Y87332D01*
X29580Y87320D01*
X29655Y87280D01*
X29710Y87268D01*
X29762Y87247D01*
X29847Y87238D01*
X29931Y87221D01*
X29987Y87225D01*
X30043Y87219D01*
X30127Y87235D01*
X30212Y87241D01*
X30261Y87260D01*
X30320Y87271D01*
X30420Y87321D01*
X30443Y87330D01*
X30987Y87476D01*
X31501Y87476D01*
X31501Y84100D01*
X31510Y84037D01*
X31509Y83972D01*
X31529Y83898D01*
X31540Y83821D01*
X31567Y83763D01*
X31584Y83701D01*
X31625Y83635D01*
X31657Y83564D01*
X31698Y83515D01*
X31732Y83461D01*
X31733Y83460D01*
X31790Y83409D01*
X31840Y83350D01*
X31841Y83349D01*
X31894Y83314D01*
X31942Y83271D01*
X32012Y83237D01*
X32076Y83195D01*
X32138Y83176D01*
X32196Y83148D01*
X32265Y83137D01*
X32346Y83113D01*
X32431Y83111D01*
X32500Y83101D01*
X35751Y83101D01*
X35751Y82462D01*
X35609Y81933D01*
X35598Y81838D01*
X35577Y81744D01*
X35581Y81698D01*
X35575Y81653D01*
X35591Y81558D01*
X35598Y81462D01*
X35613Y81423D01*
X35621Y81375D01*
X35677Y81259D01*
X35709Y81175D01*
X35739Y81122D01*
X35876Y80613D01*
X35876Y80099D01*
X32500Y80099D01*
X32437Y80090D01*
X32372Y80091D01*
X32298Y80071D01*
X32221Y80060D01*
X32163Y80033D01*
X32101Y80016D01*
X32035Y79975D01*
X31964Y79943D01*
X31915Y79902D01*
X31861Y79868D01*
X31809Y79810D01*
X31750Y79760D01*
X31715Y79706D01*
X31672Y79659D01*
X31638Y79589D01*
X31595Y79524D01*
X31577Y79462D01*
X31549Y79405D01*
X31538Y79335D01*
X31513Y79254D01*
X31512Y79170D01*
X31501Y79100D01*
X31510Y79036D01*
X31509Y78972D01*
X31530Y78897D01*
X31541Y78821D01*
X31567Y78762D01*
X31584Y78700D01*
X31625Y78634D01*
X31657Y78564D01*
X31699Y78515D01*
X31733Y78460D01*
X31790Y78408D01*
X31841Y78349D01*
X31894Y78314D01*
X31942Y78271D01*
X32012Y78237D01*
X32076Y78195D01*
X32138Y78176D01*
X32196Y78148D01*
X32265Y78137D01*
X32346Y78113D01*
X32431Y78111D01*
X32500Y78101D01*
X35876Y78101D01*
X35876Y77587D01*
X35728Y77034D01*
X35717Y76949D01*
X35698Y76865D01*
X35700Y76809D01*
X35694Y76754D01*
X35708Y76669D01*
X35712Y76584D01*
X35730Y76531D01*
X35739Y76475D01*
X35776Y76398D01*
X35804Y76317D01*
X35835Y76275D01*
X35861Y76221D01*
X35876Y76205D01*
X35876Y71966D01*
X35874Y71963D01*
X35840Y71873D01*
X35798Y71787D01*
X35792Y71745D01*
X35775Y71699D01*
X35765Y71572D01*
X35751Y71482D01*
X35751Y66882D01*
X35736Y66862D01*
X35671Y66791D01*
X35651Y66750D01*
X35624Y66713D01*
X35590Y66623D01*
X35548Y66537D01*
X35542Y66495D01*
X35525Y66449D01*
X35515Y66322D01*
X35501Y66232D01*
X35501Y63097D01*
X28453Y56050D01*
X26403Y53999D01*
X26000Y53999D01*
X25936Y53990D01*
X25872Y53991D01*
X25797Y53970D01*
X25721Y53959D01*
X25662Y53933D01*
X25600Y53916D01*
X25534Y53875D01*
X25464Y53843D01*
X25415Y53801D01*
X25360Y53768D01*
X25308Y53710D01*
X25250Y53660D01*
X25214Y53606D01*
X25171Y53558D01*
X25138Y53489D01*
X25095Y53424D01*
X25076Y53362D01*
X25048Y53305D01*
X25037Y53235D01*
X25013Y53154D01*
X25012Y53069D01*
X25001Y53000D01*
X25001Y50999D01*
X20500Y50999D01*
X20437Y50990D01*
X20372Y50991D01*
X20298Y50970D01*
X20221Y50959D01*
X20163Y50933D01*
X20101Y50916D01*
X20035Y50875D01*
X19964Y50843D01*
X19915Y50801D01*
X19861Y50768D01*
X19809Y50710D01*
X19750Y50660D01*
X19715Y50606D01*
X19672Y50558D01*
X19638Y50489D01*
X19595Y50424D01*
X19577Y50362D01*
X19549Y50305D01*
X19538Y50235D01*
X19513Y50154D01*
X19512Y50069D01*
X19501Y50000D01*
X19501Y49000D01*
X19510Y48936D01*
X19509Y48872D01*
X19530Y48797D01*
X19541Y48721D01*
X19567Y48662D01*
X19584Y48600D01*
X19625Y48534D01*
X19657Y48464D01*
X19699Y48415D01*
X19733Y48360D01*
X19790Y48308D01*
X19840Y48250D01*
X19894Y48214D01*
X19942Y48171D01*
X20011Y48138D01*
X20076Y48095D01*
X20138Y48076D01*
X20196Y48048D01*
X20265Y48037D01*
X20346Y48013D01*
X20431Y48012D01*
X20500Y48001D01*
X25001Y48001D01*
X25001Y44762D01*
X25010Y44698D01*
X25009Y44634D01*
X25030Y44559D01*
X25041Y44483D01*
X25067Y44424D01*
X25084Y44362D01*
X25125Y44296D01*
X25157Y44226D01*
X25199Y44177D01*
X25232Y44122D01*
X25290Y44070D01*
X25340Y44012D01*
X25394Y43976D01*
X25442Y43933D01*
X25511Y43900D01*
X25576Y43857D01*
X25638Y43838D01*
X25695Y43810D01*
X25765Y43799D01*
X25846Y43775D01*
X25931Y43774D01*
X26000Y43763D01*
X27805Y43763D01*
X27837Y43767D01*
G37*
G36*
X26564Y2010D02*
X26564Y2010D01*
X26628Y2009D01*
X26703Y2030D01*
X26779Y2041D01*
X26838Y2067D01*
X26900Y2084D01*
X26966Y2125D01*
X27036Y2157D01*
X27085Y2199D01*
X27140Y2232D01*
X27192Y2290D01*
X27250Y2340D01*
X27286Y2394D01*
X27329Y2442D01*
X27362Y2511D01*
X27405Y2576D01*
X27424Y2638D01*
X27452Y2695D01*
X27463Y2765D01*
X27487Y2846D01*
X27488Y2931D01*
X27499Y3000D01*
X27499Y6951D01*
X27522Y6994D01*
X27532Y7049D01*
X27552Y7102D01*
X27559Y7187D01*
X27575Y7271D01*
X27569Y7323D01*
X27574Y7383D01*
X27551Y7493D01*
X27542Y7578D01*
X27499Y7737D01*
X27499Y9001D01*
X34500Y9001D01*
X34563Y9010D01*
X34628Y9009D01*
X34702Y9029D01*
X34779Y9040D01*
X34837Y9067D01*
X34899Y9084D01*
X34965Y9125D01*
X35036Y9157D01*
X35085Y9198D01*
X35139Y9232D01*
X35191Y9290D01*
X35250Y9340D01*
X35285Y9394D01*
X35328Y9441D01*
X35362Y9511D01*
X35405Y9576D01*
X35423Y9637D01*
X35451Y9695D01*
X35462Y9765D01*
X35487Y9846D01*
X35488Y9930D01*
X35499Y10000D01*
X35490Y10064D01*
X35491Y10128D01*
X35470Y10203D01*
X35459Y10279D01*
X35433Y10338D01*
X35416Y10400D01*
X35375Y10466D01*
X35343Y10536D01*
X35301Y10585D01*
X35267Y10640D01*
X35210Y10692D01*
X35159Y10751D01*
X35106Y10786D01*
X35058Y10829D01*
X34988Y10863D01*
X34924Y10905D01*
X34862Y10924D01*
X34804Y10952D01*
X34735Y10963D01*
X34654Y10987D01*
X34569Y10989D01*
X34500Y10999D01*
X27499Y10999D01*
X27499Y12263D01*
X27627Y12741D01*
X27634Y12793D01*
X27647Y12838D01*
X27648Y12889D01*
X27660Y12952D01*
X27657Y12985D01*
X27661Y13021D01*
X27651Y13085D01*
X27651Y13120D01*
X27636Y13174D01*
X27627Y13259D01*
X27499Y13737D01*
X27499Y15001D01*
X34500Y15001D01*
X34563Y15010D01*
X34628Y15009D01*
X34702Y15029D01*
X34779Y15040D01*
X34837Y15067D01*
X34899Y15084D01*
X34965Y15125D01*
X35036Y15157D01*
X35085Y15198D01*
X35139Y15232D01*
X35191Y15290D01*
X35250Y15340D01*
X35285Y15394D01*
X35328Y15441D01*
X35362Y15511D01*
X35405Y15576D01*
X35423Y15637D01*
X35451Y15695D01*
X35462Y15765D01*
X35487Y15846D01*
X35488Y15930D01*
X35499Y16000D01*
X35490Y16064D01*
X35491Y16128D01*
X35470Y16203D01*
X35459Y16279D01*
X35433Y16338D01*
X35416Y16400D01*
X35375Y16466D01*
X35343Y16536D01*
X35301Y16585D01*
X35267Y16640D01*
X35210Y16692D01*
X35159Y16751D01*
X35106Y16786D01*
X35058Y16829D01*
X34988Y16863D01*
X34924Y16905D01*
X34862Y16924D01*
X34804Y16952D01*
X34735Y16963D01*
X34654Y16987D01*
X34569Y16989D01*
X34500Y16999D01*
X27499Y16999D01*
X27499Y18263D01*
X27627Y18741D01*
X27633Y18792D01*
X27646Y18834D01*
X27647Y18882D01*
X27660Y18952D01*
X27657Y18985D01*
X27661Y19021D01*
X27650Y19091D01*
X27650Y19116D01*
X27639Y19155D01*
X27637Y19168D01*
X27627Y19259D01*
X27499Y19737D01*
X27499Y21001D01*
X34500Y21001D01*
X34563Y21010D01*
X34628Y21009D01*
X34702Y21029D01*
X34779Y21040D01*
X34837Y21067D01*
X34899Y21084D01*
X34965Y21125D01*
X35036Y21157D01*
X35085Y21198D01*
X35139Y21232D01*
X35191Y21290D01*
X35250Y21340D01*
X35285Y21394D01*
X35328Y21441D01*
X35362Y21511D01*
X35405Y21576D01*
X35423Y21637D01*
X35451Y21695D01*
X35462Y21765D01*
X35487Y21846D01*
X35488Y21930D01*
X35499Y22000D01*
X35490Y22064D01*
X35491Y22128D01*
X35470Y22203D01*
X35459Y22279D01*
X35433Y22338D01*
X35416Y22400D01*
X35375Y22466D01*
X35343Y22536D01*
X35301Y22585D01*
X35267Y22640D01*
X35210Y22692D01*
X35159Y22751D01*
X35106Y22786D01*
X35058Y22829D01*
X34988Y22863D01*
X34924Y22905D01*
X34862Y22924D01*
X34804Y22952D01*
X34735Y22963D01*
X34654Y22987D01*
X34569Y22989D01*
X34500Y22999D01*
X27499Y22999D01*
X27499Y23047D01*
X27495Y23079D01*
X27497Y23111D01*
X27475Y23218D01*
X27459Y23326D01*
X27446Y23356D01*
X27440Y23387D01*
X27388Y23484D01*
X27343Y23583D01*
X27322Y23608D01*
X27307Y23636D01*
X27231Y23714D01*
X27160Y23798D01*
X27133Y23815D01*
X27110Y23838D01*
X27015Y23892D01*
X26924Y23952D01*
X26893Y23961D01*
X26865Y23977D01*
X26758Y24003D01*
X26654Y24034D01*
X26622Y24035D01*
X26591Y24042D01*
X26481Y24037D01*
X26372Y24038D01*
X26341Y24030D01*
X26309Y24028D01*
X26205Y23992D01*
X26100Y23963D01*
X26073Y23946D01*
X26042Y23935D01*
X25969Y23882D01*
X25860Y23815D01*
X25828Y23779D01*
X25793Y23754D01*
X23769Y21729D01*
X22387Y21729D01*
X22292Y21716D01*
X22196Y21711D01*
X22153Y21696D01*
X22108Y21689D01*
X22020Y21650D01*
X21929Y21618D01*
X21895Y21593D01*
X21851Y21573D01*
X21753Y21490D01*
X21680Y21437D01*
X19189Y18945D01*
X19162Y18933D01*
X19100Y18916D01*
X19034Y18875D01*
X18964Y18843D01*
X18915Y18801D01*
X18860Y18768D01*
X18808Y18710D01*
X18750Y18660D01*
X18714Y18606D01*
X18671Y18558D01*
X18638Y18489D01*
X18595Y18424D01*
X18576Y18362D01*
X18548Y18305D01*
X18537Y18235D01*
X18513Y18154D01*
X18512Y18069D01*
X18501Y18000D01*
X18501Y3000D01*
X18510Y2936D01*
X18509Y2872D01*
X18530Y2797D01*
X18541Y2721D01*
X18567Y2662D01*
X18584Y2600D01*
X18625Y2534D01*
X18657Y2464D01*
X18699Y2415D01*
X18732Y2360D01*
X18790Y2308D01*
X18840Y2250D01*
X18894Y2214D01*
X18942Y2171D01*
X19011Y2138D01*
X19076Y2095D01*
X19138Y2076D01*
X19195Y2048D01*
X19265Y2037D01*
X19346Y2013D01*
X19431Y2012D01*
X19500Y2001D01*
X26500Y2001D01*
X26564Y2010D01*
G37*
%LPC*%
G36*
X10249Y94249D02*
X10249Y94249D01*
X10249Y97501D01*
X12263Y97501D01*
X12772Y97364D01*
X13229Y97101D01*
X13601Y96729D01*
X13864Y96272D01*
X14001Y95763D01*
X14001Y94249D01*
X10249Y94249D01*
G37*
%LPD*%
%LPC*%
G36*
X35999Y58249D02*
X35999Y58249D01*
X35999Y59763D01*
X36136Y60272D01*
X36399Y60729D01*
X36771Y61101D01*
X37228Y61364D01*
X37737Y61501D01*
X39751Y61501D01*
X39751Y58249D01*
X35999Y58249D01*
G37*
%LPD*%
%LPC*%
G36*
X33499Y85099D02*
X33499Y85099D01*
X33499Y87476D01*
X34013Y87476D01*
X34522Y87339D01*
X34979Y87076D01*
X35351Y86704D01*
X35614Y86247D01*
X35751Y85738D01*
X35751Y85099D01*
X33499Y85099D01*
G37*
%LPD*%
D10*
X5000Y49500D03*
X20000Y49500D03*
D11*
X9000Y83000D03*
X9000Y93000D03*
X41000Y47000D03*
X41000Y57000D03*
D12*
X11000Y112000D03*
X35000Y112000D03*
D13*
X11500Y40000D03*
X11500Y34000D03*
X11500Y28000D03*
X11500Y22000D03*
X11500Y16000D03*
X11500Y10000D03*
X11500Y4000D03*
X34500Y4000D03*
X34500Y10000D03*
X34500Y16000D03*
X34500Y22000D03*
X34500Y28000D03*
X34500Y34000D03*
X34500Y40000D03*
D14*
X17500Y84100D03*
D15*
X17500Y79100D03*
X17500Y74100D03*
D14*
X17500Y69100D03*
X22500Y69100D03*
X27500Y69100D03*
X32500Y69100D03*
D15*
X32500Y74100D03*
X32500Y79100D03*
D14*
X32500Y84100D03*
X27500Y84100D03*
X22500Y84100D03*
D16*
X11500Y16000D02*
X3000Y16000D01*
X3000Y28000D01*
X11500Y28000D01*
X11000Y106000D02*
X11000Y112000D01*
X11000Y106000D02*
X3000Y98000D01*
X3000Y47700D02*
X3000Y28000D01*
X3000Y47700D02*
X5000Y49500D01*
X3000Y47700D02*
X3000Y98000D01*
D17*
X23000Y5000D03*
X23000Y12000D03*
X40000Y85000D03*
X40000Y78000D03*
X40000Y92000D03*
X23000Y19000D03*
X23000Y63000D03*
X22000Y91570D03*
X22000Y26000D03*
D16*
X18000Y22000D01*
X11500Y22000D01*
X27500Y65500D02*
X27500Y69100D01*
X27500Y65500D02*
X25000Y63000D01*
X23000Y63000D01*
X22500Y63500D02*
X22500Y69100D01*
X22500Y63500D02*
X23000Y63000D01*
X22500Y84100D02*
X22500Y91070D01*
X22000Y91570D01*
X17500Y84100D02*
X10100Y84100D01*
X9000Y83000D01*
X17500Y84100D02*
X17500Y90070D01*
X19000Y91570D02*
X22000Y91570D01*
X19000Y91570D02*
X17500Y90070D01*
X32500Y69100D02*
X32500Y64340D01*
X25160Y57000D01*
X12500Y57000D02*
X12500Y41000D01*
X11500Y40000D01*
X12500Y57000D02*
X25160Y57000D01*
X11000Y57000D02*
X9000Y59000D01*
D17*
X9000Y59000D03*
D16*
X11000Y57000D02*
X12500Y57000D01*
D17*
X11060Y69000D03*
X21500Y34000D03*
D16*
X11500Y34000D01*
X11160Y69100D02*
X17500Y69100D01*
X11160Y69100D02*
X11060Y69000D01*
D17*
X33020Y47000D03*
D16*
X33020Y41480D02*
X34500Y40000D01*
X33020Y41480D02*
X33020Y47000D01*
X35500Y29000D02*
X34500Y28000D01*
X35500Y29000D02*
X40743Y29000D01*
X42500Y30757D01*
X42500Y45500D01*
X41000Y47000D01*
M02*
