G04 EAGLE Gerber RS-274X export*
G75*
%MOMM*%
%FSLAX34Y34*%
%LPD*%
%INSilkscreen Top*%
%IPPOS*%
%AMOC8*
5,1,8,0,0,1.08239X$1,22.5*%
G01*
%ADD10C,0.050000*%
%ADD11C,0.050800*%
%ADD12C,0.120000*%
%ADD13C,0.500000*%


D10*
X4750Y45250D02*
X20250Y45250D01*
X20250Y53750D01*
X4750Y53750D01*
X4750Y45250D01*
D11*
X14597Y55354D02*
X16039Y55354D01*
X14597Y55354D02*
X14521Y55356D01*
X14446Y55362D01*
X14371Y55372D01*
X14297Y55386D01*
X14224Y55403D01*
X14151Y55425D01*
X14080Y55450D01*
X14010Y55479D01*
X13942Y55511D01*
X13875Y55547D01*
X13811Y55587D01*
X13749Y55630D01*
X13689Y55676D01*
X13631Y55725D01*
X13577Y55777D01*
X13525Y55831D01*
X13476Y55889D01*
X13430Y55949D01*
X13387Y56011D01*
X13347Y56076D01*
X13311Y56142D01*
X13279Y56210D01*
X13250Y56280D01*
X13225Y56351D01*
X13203Y56424D01*
X13186Y56497D01*
X13172Y56571D01*
X13162Y56646D01*
X13156Y56721D01*
X13154Y56797D01*
X13154Y60403D01*
X13156Y60479D01*
X13162Y60554D01*
X13172Y60629D01*
X13186Y60703D01*
X13203Y60776D01*
X13225Y60849D01*
X13250Y60920D01*
X13279Y60990D01*
X13311Y61058D01*
X13347Y61124D01*
X13387Y61189D01*
X13430Y61251D01*
X13476Y61311D01*
X13525Y61369D01*
X13577Y61423D01*
X13631Y61475D01*
X13689Y61524D01*
X13749Y61570D01*
X13811Y61613D01*
X13875Y61653D01*
X13942Y61689D01*
X14010Y61721D01*
X14080Y61750D01*
X14151Y61775D01*
X14223Y61797D01*
X14297Y61814D01*
X14371Y61828D01*
X14446Y61838D01*
X14521Y61844D01*
X14597Y61846D01*
X16039Y61846D01*
X18421Y60403D02*
X20225Y61846D01*
X20225Y55354D01*
X22028Y55354D02*
X18421Y55354D01*
X9346Y71815D02*
X9346Y73257D01*
X9346Y71815D02*
X9344Y71739D01*
X9338Y71664D01*
X9328Y71589D01*
X9314Y71515D01*
X9297Y71442D01*
X9275Y71369D01*
X9250Y71298D01*
X9221Y71228D01*
X9189Y71160D01*
X9153Y71094D01*
X9113Y71029D01*
X9070Y70967D01*
X9024Y70907D01*
X8975Y70849D01*
X8923Y70795D01*
X8869Y70743D01*
X8811Y70694D01*
X8751Y70648D01*
X8689Y70605D01*
X8625Y70565D01*
X8558Y70529D01*
X8490Y70497D01*
X8420Y70468D01*
X8349Y70443D01*
X8277Y70421D01*
X8203Y70404D01*
X8129Y70390D01*
X8054Y70380D01*
X7979Y70374D01*
X7903Y70372D01*
X4297Y70372D01*
X4221Y70374D01*
X4146Y70380D01*
X4071Y70390D01*
X3997Y70404D01*
X3924Y70421D01*
X3851Y70443D01*
X3780Y70468D01*
X3710Y70497D01*
X3642Y70529D01*
X3576Y70565D01*
X3511Y70605D01*
X3449Y70648D01*
X3389Y70694D01*
X3331Y70743D01*
X3277Y70795D01*
X3225Y70849D01*
X3176Y70907D01*
X3130Y70967D01*
X3087Y71029D01*
X3047Y71093D01*
X3011Y71160D01*
X2979Y71228D01*
X2950Y71298D01*
X2925Y71369D01*
X2903Y71441D01*
X2886Y71515D01*
X2872Y71589D01*
X2862Y71664D01*
X2856Y71739D01*
X2854Y71815D01*
X2854Y73257D01*
X2854Y77623D02*
X2856Y77703D01*
X2862Y77782D01*
X2872Y77861D01*
X2885Y77940D01*
X2903Y78017D01*
X2924Y78094D01*
X2949Y78170D01*
X2978Y78244D01*
X3010Y78317D01*
X3046Y78388D01*
X3085Y78457D01*
X3128Y78525D01*
X3173Y78590D01*
X3222Y78653D01*
X3274Y78713D01*
X3329Y78771D01*
X3387Y78826D01*
X3447Y78878D01*
X3510Y78927D01*
X3575Y78972D01*
X3643Y79015D01*
X3712Y79054D01*
X3783Y79090D01*
X3856Y79122D01*
X3930Y79151D01*
X4006Y79176D01*
X4083Y79197D01*
X4160Y79215D01*
X4239Y79228D01*
X4318Y79238D01*
X4397Y79244D01*
X4477Y79246D01*
X2854Y77623D02*
X2856Y77533D01*
X2862Y77442D01*
X2872Y77353D01*
X2885Y77263D01*
X2903Y77174D01*
X2924Y77087D01*
X2949Y77000D01*
X2978Y76914D01*
X3011Y76830D01*
X3047Y76747D01*
X3087Y76666D01*
X3130Y76586D01*
X3177Y76509D01*
X3227Y76433D01*
X3280Y76360D01*
X3336Y76290D01*
X3395Y76221D01*
X3458Y76156D01*
X3523Y76093D01*
X3590Y76033D01*
X3660Y75976D01*
X3733Y75922D01*
X3808Y75871D01*
X3885Y75824D01*
X3964Y75780D01*
X4045Y75740D01*
X4127Y75703D01*
X4211Y75669D01*
X4297Y75639D01*
X5739Y78705D02*
X5684Y78761D01*
X5626Y78814D01*
X5566Y78864D01*
X5504Y78912D01*
X5439Y78956D01*
X5373Y78998D01*
X5305Y79037D01*
X5235Y79073D01*
X5164Y79105D01*
X5091Y79134D01*
X5017Y79160D01*
X4942Y79183D01*
X4866Y79202D01*
X4789Y79218D01*
X4712Y79230D01*
X4634Y79239D01*
X4555Y79244D01*
X4477Y79246D01*
X5739Y78705D02*
X9346Y75639D01*
X9346Y79246D01*
X44346Y64739D02*
X44346Y63297D01*
X44344Y63221D01*
X44338Y63146D01*
X44328Y63071D01*
X44314Y62997D01*
X44297Y62924D01*
X44275Y62851D01*
X44250Y62780D01*
X44221Y62710D01*
X44189Y62642D01*
X44153Y62576D01*
X44113Y62511D01*
X44070Y62449D01*
X44024Y62389D01*
X43975Y62331D01*
X43923Y62277D01*
X43869Y62225D01*
X43811Y62176D01*
X43751Y62130D01*
X43689Y62087D01*
X43625Y62047D01*
X43558Y62011D01*
X43490Y61979D01*
X43420Y61950D01*
X43349Y61925D01*
X43277Y61903D01*
X43203Y61886D01*
X43129Y61872D01*
X43054Y61862D01*
X42979Y61856D01*
X42903Y61854D01*
X39297Y61854D01*
X39221Y61856D01*
X39146Y61862D01*
X39071Y61872D01*
X38997Y61886D01*
X38924Y61903D01*
X38851Y61925D01*
X38780Y61950D01*
X38710Y61979D01*
X38642Y62011D01*
X38576Y62047D01*
X38511Y62087D01*
X38449Y62130D01*
X38389Y62176D01*
X38331Y62225D01*
X38277Y62277D01*
X38225Y62331D01*
X38176Y62389D01*
X38130Y62449D01*
X38087Y62511D01*
X38047Y62575D01*
X38011Y62642D01*
X37979Y62710D01*
X37950Y62780D01*
X37925Y62851D01*
X37903Y62923D01*
X37886Y62997D01*
X37872Y63071D01*
X37862Y63146D01*
X37856Y63221D01*
X37854Y63297D01*
X37854Y64739D01*
X44346Y67121D02*
X44346Y68925D01*
X44344Y69008D01*
X44338Y69091D01*
X44329Y69174D01*
X44315Y69256D01*
X44298Y69338D01*
X44277Y69418D01*
X44253Y69498D01*
X44224Y69576D01*
X44192Y69653D01*
X44157Y69729D01*
X44118Y69802D01*
X44076Y69874D01*
X44030Y69944D01*
X43982Y70012D01*
X43930Y70077D01*
X43875Y70140D01*
X43818Y70200D01*
X43758Y70257D01*
X43695Y70312D01*
X43630Y70364D01*
X43562Y70412D01*
X43492Y70458D01*
X43420Y70500D01*
X43347Y70539D01*
X43271Y70574D01*
X43194Y70606D01*
X43116Y70635D01*
X43036Y70659D01*
X42956Y70680D01*
X42874Y70697D01*
X42792Y70711D01*
X42709Y70720D01*
X42626Y70726D01*
X42543Y70728D01*
X42460Y70726D01*
X42377Y70720D01*
X42294Y70711D01*
X42212Y70697D01*
X42130Y70680D01*
X42050Y70659D01*
X41970Y70635D01*
X41892Y70606D01*
X41815Y70574D01*
X41739Y70539D01*
X41666Y70500D01*
X41594Y70458D01*
X41524Y70412D01*
X41456Y70364D01*
X41391Y70312D01*
X41328Y70257D01*
X41268Y70200D01*
X41211Y70140D01*
X41156Y70077D01*
X41104Y70012D01*
X41056Y69944D01*
X41010Y69874D01*
X40968Y69802D01*
X40929Y69729D01*
X40894Y69653D01*
X40862Y69576D01*
X40833Y69498D01*
X40809Y69418D01*
X40788Y69338D01*
X40771Y69256D01*
X40757Y69174D01*
X40748Y69091D01*
X40742Y69008D01*
X40740Y68925D01*
X37854Y69285D02*
X37854Y67121D01*
X37854Y69285D02*
X37856Y69361D01*
X37862Y69436D01*
X37872Y69511D01*
X37886Y69585D01*
X37903Y69658D01*
X37925Y69731D01*
X37950Y69802D01*
X37979Y69872D01*
X38011Y69940D01*
X38047Y70007D01*
X38087Y70071D01*
X38130Y70133D01*
X38176Y70193D01*
X38225Y70251D01*
X38277Y70305D01*
X38331Y70357D01*
X38389Y70406D01*
X38449Y70452D01*
X38511Y70495D01*
X38576Y70535D01*
X38642Y70571D01*
X38710Y70603D01*
X38780Y70632D01*
X38851Y70657D01*
X38924Y70679D01*
X38997Y70696D01*
X39071Y70710D01*
X39146Y70720D01*
X39221Y70726D01*
X39297Y70728D01*
X39373Y70726D01*
X39448Y70720D01*
X39523Y70710D01*
X39597Y70696D01*
X39670Y70679D01*
X39743Y70657D01*
X39814Y70632D01*
X39884Y70603D01*
X39952Y70571D01*
X40019Y70535D01*
X40083Y70495D01*
X40145Y70452D01*
X40205Y70406D01*
X40263Y70357D01*
X40317Y70305D01*
X40369Y70251D01*
X40418Y70193D01*
X40464Y70133D01*
X40507Y70071D01*
X40547Y70007D01*
X40583Y69940D01*
X40615Y69872D01*
X40644Y69802D01*
X40669Y69731D01*
X40691Y69658D01*
X40708Y69585D01*
X40722Y69511D01*
X40732Y69436D01*
X40738Y69361D01*
X40740Y69285D01*
X40739Y69285D02*
X40739Y67843D01*
D12*
X37500Y43500D02*
X8500Y43500D01*
X8500Y500D02*
X37500Y500D01*
X8500Y36800D02*
X8500Y37200D01*
X8500Y31200D02*
X8500Y30800D01*
X8500Y25200D02*
X8500Y24800D01*
X8500Y19300D02*
X8500Y18800D01*
X8500Y13200D02*
X8500Y12800D01*
X8500Y7200D02*
X8500Y6800D01*
X8500Y1200D02*
X8500Y500D01*
X37500Y500D02*
X37500Y1200D01*
X37500Y6800D02*
X37500Y7200D01*
X37500Y12800D02*
X37500Y13200D01*
X37500Y18800D02*
X37500Y19200D01*
X37500Y24800D02*
X37500Y25200D01*
X37500Y30800D02*
X37500Y31200D01*
X37500Y36800D02*
X37500Y37200D01*
X37500Y42800D02*
X37500Y43500D01*
D13*
X3370Y41840D03*
D12*
X8500Y42800D02*
X8500Y43500D01*
D11*
X26401Y47032D02*
X26401Y51720D01*
X26401Y47032D02*
X26403Y46949D01*
X26409Y46866D01*
X26418Y46783D01*
X26432Y46701D01*
X26449Y46619D01*
X26470Y46539D01*
X26494Y46459D01*
X26523Y46381D01*
X26555Y46304D01*
X26590Y46228D01*
X26629Y46155D01*
X26671Y46083D01*
X26717Y46013D01*
X26765Y45945D01*
X26817Y45880D01*
X26872Y45817D01*
X26929Y45757D01*
X26989Y45700D01*
X27052Y45645D01*
X27117Y45593D01*
X27185Y45545D01*
X27255Y45499D01*
X27327Y45457D01*
X27400Y45418D01*
X27476Y45383D01*
X27553Y45351D01*
X27631Y45322D01*
X27711Y45298D01*
X27791Y45277D01*
X27873Y45260D01*
X27955Y45246D01*
X28038Y45237D01*
X28121Y45231D01*
X28204Y45229D01*
X28287Y45231D01*
X28370Y45237D01*
X28453Y45246D01*
X28535Y45260D01*
X28617Y45277D01*
X28697Y45298D01*
X28777Y45322D01*
X28855Y45351D01*
X28932Y45383D01*
X29008Y45418D01*
X29081Y45457D01*
X29153Y45499D01*
X29223Y45545D01*
X29291Y45593D01*
X29356Y45645D01*
X29419Y45700D01*
X29479Y45757D01*
X29536Y45817D01*
X29591Y45880D01*
X29643Y45945D01*
X29691Y46013D01*
X29737Y46083D01*
X29779Y46155D01*
X29818Y46228D01*
X29853Y46304D01*
X29885Y46381D01*
X29914Y46459D01*
X29938Y46539D01*
X29959Y46619D01*
X29976Y46701D01*
X29990Y46783D01*
X29999Y46866D01*
X30005Y46949D01*
X30007Y47032D01*
X30007Y51720D01*
X32911Y50278D02*
X34714Y51720D01*
X34714Y45228D01*
X32911Y45228D02*
X36517Y45228D01*
D12*
X35500Y66100D02*
X14500Y66100D01*
X14500Y87100D01*
X35500Y87100D01*
X35500Y66100D01*
D13*
X11660Y64460D03*
D11*
X26719Y90557D02*
X26719Y95246D01*
X26720Y90557D02*
X26722Y90474D01*
X26728Y90391D01*
X26737Y90308D01*
X26751Y90226D01*
X26768Y90144D01*
X26789Y90064D01*
X26813Y89984D01*
X26842Y89906D01*
X26874Y89829D01*
X26909Y89753D01*
X26948Y89680D01*
X26990Y89608D01*
X27036Y89538D01*
X27084Y89470D01*
X27136Y89405D01*
X27191Y89342D01*
X27248Y89282D01*
X27308Y89225D01*
X27371Y89170D01*
X27436Y89118D01*
X27504Y89070D01*
X27574Y89024D01*
X27646Y88982D01*
X27719Y88943D01*
X27795Y88908D01*
X27872Y88876D01*
X27950Y88847D01*
X28030Y88823D01*
X28110Y88802D01*
X28192Y88785D01*
X28274Y88771D01*
X28357Y88762D01*
X28440Y88756D01*
X28523Y88754D01*
X28606Y88756D01*
X28689Y88762D01*
X28772Y88771D01*
X28854Y88785D01*
X28936Y88802D01*
X29016Y88823D01*
X29096Y88847D01*
X29174Y88876D01*
X29251Y88908D01*
X29327Y88943D01*
X29400Y88982D01*
X29472Y89024D01*
X29542Y89070D01*
X29610Y89118D01*
X29675Y89170D01*
X29738Y89225D01*
X29798Y89282D01*
X29855Y89342D01*
X29910Y89405D01*
X29962Y89470D01*
X30010Y89538D01*
X30056Y89608D01*
X30098Y89680D01*
X30137Y89753D01*
X30172Y89829D01*
X30204Y89906D01*
X30233Y89984D01*
X30257Y90064D01*
X30278Y90144D01*
X30295Y90226D01*
X30309Y90308D01*
X30318Y90391D01*
X30324Y90474D01*
X30326Y90557D01*
X30326Y95246D01*
X35213Y95246D02*
X35293Y95244D01*
X35372Y95238D01*
X35451Y95228D01*
X35530Y95215D01*
X35607Y95197D01*
X35684Y95176D01*
X35760Y95151D01*
X35834Y95122D01*
X35907Y95090D01*
X35978Y95054D01*
X36047Y95015D01*
X36115Y94972D01*
X36180Y94927D01*
X36243Y94878D01*
X36303Y94826D01*
X36361Y94771D01*
X36416Y94713D01*
X36468Y94653D01*
X36517Y94590D01*
X36562Y94525D01*
X36605Y94457D01*
X36644Y94388D01*
X36680Y94317D01*
X36712Y94244D01*
X36741Y94170D01*
X36766Y94094D01*
X36787Y94017D01*
X36805Y93940D01*
X36818Y93861D01*
X36828Y93782D01*
X36834Y93703D01*
X36836Y93623D01*
X35213Y95246D02*
X35123Y95244D01*
X35032Y95238D01*
X34943Y95228D01*
X34853Y95215D01*
X34764Y95197D01*
X34677Y95176D01*
X34590Y95151D01*
X34504Y95122D01*
X34420Y95089D01*
X34337Y95053D01*
X34256Y95013D01*
X34176Y94970D01*
X34099Y94923D01*
X34023Y94873D01*
X33950Y94820D01*
X33880Y94764D01*
X33811Y94705D01*
X33746Y94642D01*
X33683Y94577D01*
X33623Y94510D01*
X33566Y94440D01*
X33512Y94367D01*
X33461Y94292D01*
X33414Y94215D01*
X33370Y94136D01*
X33330Y94055D01*
X33293Y93973D01*
X33259Y93889D01*
X33229Y93803D01*
X36295Y92361D02*
X36351Y92416D01*
X36404Y92474D01*
X36454Y92534D01*
X36502Y92596D01*
X36546Y92661D01*
X36588Y92727D01*
X36627Y92795D01*
X36663Y92865D01*
X36695Y92936D01*
X36724Y93009D01*
X36750Y93083D01*
X36773Y93158D01*
X36792Y93234D01*
X36808Y93311D01*
X36820Y93388D01*
X36829Y93466D01*
X36834Y93545D01*
X36836Y93623D01*
X36295Y92361D02*
X33229Y88754D01*
X36836Y88754D01*
M02*
